<svg width="128" height="128" viewBox="0 0 128 128" fill="none" xmlns="http://www.w3.org/2000/svg">
<circle cx="64" cy="64" r="64" fill="#D9D9D9"/>
<circle cx="64.5" cy="64.5" r="40.5" fill="#BC002D"/>
<path d="M38.52 43.56H51.62V60.3H50.04V45.08H40.06V60.38H38.52V43.56ZM39.54 50.5H50.7V51.98H39.54V50.5ZM39.52 57.58H50.74V59.08H39.52V57.58ZM56.28 46.42H73.74V47.94H56.28V46.42ZM60.28 55.34H69.6V56.86H60.28V55.34ZM64.18 42.22H65.76V60.6H64.18V42.22ZM63.72 46.92L65.06 47.38C63.28 51.62 60.14 55.44 56.68 57.46C56.44 57.08 55.94 56.52 55.6 56.22C58.94 54.48 62.12 50.76 63.72 46.92ZM66.26 46.98C67.84 50.78 70.98 54.42 74.44 56.08C74.06 56.4 73.54 57 73.3 57.42C69.76 55.46 66.68 51.64 64.92 47.44L66.26 46.98ZM84.58 53.4H93.04V60.52H91.58V54.78H86V60.6H84.58V53.4ZM84.04 46.32H92.5V51.22H91.04V47.64H84.04V46.32ZM86.92 43.46L88.4 43.58C88.04 46.04 87.48 49.32 87.06 51.22H85.58C86.04 49.24 86.6 45.88 86.92 43.46ZM83.72 42.96H93.62V44.26H83.72V42.96ZM83.12 50.54H94.26V51.88H83.12V50.54ZM85.22 58.32H92.38V59.68H85.22V58.32ZM76.7 48.38H82.34V49.56H76.7V48.38ZM76.82 42.92H82.32V44.12H76.82V42.92ZM76.7 51.1H82.34V52.3H76.7V51.1ZM75.76 45.6H83.04V46.84H75.76V45.6ZM77.42 53.84H82.42V59.68H77.42V58.44H81.1V55.1H77.42V53.84ZM76.68 53.84H77.98V60.6H76.68V53.84ZM47.18 73.32H52.26V74.7H47.18V73.32ZM46.38 67.96H53.18V75.46H51.74V69.36H46.38V67.96ZM46.38 73.32H47.84V79.7C47.84 80.34 47.98 80.44 48.82 80.44C49.2 80.44 51.14 80.44 51.64 80.44C52.36 80.44 52.48 80.12 52.56 78.08C52.88 78.34 53.5 78.58 53.92 78.68C53.74 81.22 53.32 81.86 51.76 81.86C51.36 81.86 49.04 81.86 48.66 81.86C46.88 81.86 46.38 81.42 46.38 79.72V73.32ZM56 69.88H64.24V71.3H56V69.88ZM56.52 66.22L58.08 66.48C57.3 70.1 56 73.42 54.26 75.58C53.96 75.32 53.3 74.86 52.92 74.64C54.68 72.66 55.88 69.54 56.52 66.22ZM61.2 70.44L62.72 70.62C61.6 78.08 59.04 82.24 53.1 84.68C52.94 84.34 52.48 83.68 52.18 83.34C57.9 81.28 60.24 77.36 61.2 70.44ZM56.6 71.16C57.68 76.84 60.02 81.42 64.48 83.3C64.14 83.6 63.66 84.18 63.42 84.6C58.78 82.42 56.44 77.66 55.22 71.42L56.6 71.16ZM69.52 82.72H80.54V83.92H69.52V82.72ZM68.82 79.14H81.3V84.54H79.76V80.34H70.28V84.6H68.82V79.14ZM67.18 68.42H82.84V69.6H67.18V68.42ZM66.64 73.44H83.46V74.62H66.64V73.44ZM68.4 70.94H81.6V72.06H68.4V70.94ZM66.04 76.76H83.98V77.96H66.04V76.76ZM74.18 68.94H75.72V77.28H74.18V68.94ZM69.94 66.62L71.28 66.22C71.84 66.86 72.38 67.76 72.64 68.36L71.22 68.84C71.02 68.24 70.46 67.3 69.94 66.62ZM69.06 74.92L70.4 74.54C70.92 75.14 71.42 75.96 71.64 76.52L70.2 76.96C70.02 76.38 69.52 75.52 69.06 74.92ZM78.52 66.18L80.06 66.52C79.58 67.36 79.02 68.2 78.58 68.76L77.26 68.44C77.68 67.8 78.24 66.84 78.52 66.18ZM79.44 74.56L80.94 74.88C80.48 75.64 80 76.38 79.56 76.88L78.22 76.58C78.62 76.02 79.16 75.14 79.44 74.56Z" fill="black"/>
</svg>
